<svg width="161" height="161" viewBox="0 0 161 161" fill="none" xmlns="http://www.w3.org/2000/svg">
<path d="M147.715 2.79115C150.824 -0.317754 155.695 -0.317754 158.7 2.79115C161.705 5.79643 161.705 10.6671 158.7 13.6723C155.695 16.6776 150.824 16.6776 147.715 13.6723C144.71 10.6671 144.71 5.79643 147.715 2.79115Z" fill="#1C4E8E"/>
<path d="M2.84063 147.666C5.84591 144.661 10.7165 144.661 13.7218 147.666C16.7271 150.672 16.7271 155.646 13.7218 158.651C10.7165 161.656 5.84591 161.656 2.84063 158.651C-0.164649 155.646 -0.164649 150.672 2.84063 147.666Z" fill="#A5A9AC" fill-opacity="0.1"/>
<path d="M34.7594 100.515C42.0136 93.2607 53.7238 93.2607 60.9779 100.515C68.1284 107.769 68.1284 119.479 60.9779 126.733C53.7238 133.884 42.0136 133.884 34.7594 126.733C27.5053 119.479 27.5053 107.769 34.7594 100.515Z" stroke="#1C4E8E" stroke-width="2.8629" stroke-miterlimit="10"/>
<path d="M78.6987 37.8186C91.1343 25.4866 111.239 25.4866 123.571 37.8186C136.006 50.2542 136.006 70.2548 123.571 82.6905C111.239 95.1261 91.1343 95.1261 78.6987 82.6905C66.3667 70.2548 66.3667 50.2542 78.6987 37.8186Z" fill="#A5A9AC" fill-opacity="0.1"/>
</svg>
