<svg width="203" height="40" viewBox="0 0 203 40" fill="none" xmlns="http://www.w3.org/2000/svg">
<path d="M7.73908 17.2285H25.2429V23.773H7.73908V17.2285ZM8.36237 32.1873H28.1516V38.9395H0V2.58139H27.4764V9.33361H8.36237V32.1873Z" fill="white"/>
<path d="M34.2752 38.9395V0.399902H42.3779V38.9395H34.2752Z" fill="white"/>
<path d="M63.7659 39.355C60.5802 39.355 57.7755 38.7318 55.3516 37.4852C52.9623 36.2386 51.1098 34.5419 49.794 32.395C48.4782 30.2136 47.8203 27.7377 47.8203 24.9676C47.8203 22.1628 48.4609 19.687 49.742 17.5402C51.0579 15.3587 52.8411 13.662 55.0919 12.45C57.3426 11.2035 59.8877 10.5802 62.7271 10.5802C65.4626 10.5802 67.9211 11.1688 70.1026 12.3461C72.3187 13.4888 74.0674 15.1509 75.3486 17.3324C76.6298 19.4793 77.2703 22.059 77.2703 25.0715C77.2703 25.3831 77.253 25.7467 77.2184 26.1622C77.1838 26.5431 77.1492 26.9067 77.1145 27.253H35.9422V22.5264H72.8554L69.739 23.9288C69.739 22.4745 69.4447 21.2106 68.856 20.1372C68.2674 19.0637 67.4536 18.2327 66.4148 17.644C65.376 17.0208 64.1641 16.7091 62.779 16.7091C61.394 16.7091 60.1647 17.0208 59.0913 17.644C58.0525 18.2327 57.2387 19.0811 56.6501 20.1891C56.0614 21.2625 55.7671 22.5437 55.7671 24.0327V25.2792C55.7671 26.8028 56.0961 28.1533 56.754 29.3306C57.4465 30.4733 58.3987 31.3562 59.6107 31.9795C60.8573 32.5682 62.3116 32.8625 63.9737 32.8625C65.4626 32.8625 66.7611 32.6374 67.8692 32.1873C69.0119 31.7371 70.0507 31.0619 70.9856 30.1616L75.2966 34.8362C74.0154 36.2906 72.4053 37.4159 70.4662 38.2123C68.5271 38.9741 66.2937 39.355 63.7659 39.355Z" fill="white"/>
<path d="M96.1693 39.355C93.1567 39.355 90.4732 38.7491 88.1185 37.5371C85.7639 36.2906 83.9114 34.5765 82.5609 32.395C81.2451 30.2136 80.5872 27.7377 80.5872 24.9676C80.5872 22.1628 81.2451 19.687 82.5609 17.5402C83.9114 15.3587 85.7639 13.662 88.1185 12.45C90.4732 11.2035 93.1567 10.5802 96.1693 10.5802C99.1125 10.5802 101.675 11.2035 103.856 12.45C106.038 13.662 107.648 15.4106 108.687 17.696L102.402 21.0721C101.675 19.7563 100.757 18.7867 99.6493 18.1634C98.5758 17.5402 97.3985 17.2285 96.1173 17.2285C94.7322 17.2285 93.4857 17.5402 92.3776 18.1634C91.2696 18.7867 90.3866 19.6697 89.7287 20.8124C89.1054 21.9551 88.7938 23.3401 88.7938 24.9676C88.7938 26.5951 89.1054 27.9801 89.7287 29.1228C90.3866 30.2655 91.2696 31.1485 92.3776 31.7718C93.4857 32.3951 94.7322 32.7067 96.1173 32.7067C97.3985 32.7067 98.5758 32.4124 99.6493 31.8237C100.757 31.2004 101.675 30.2136 102.402 28.8631L108.687 32.2912C107.648 34.5419 106.038 36.2906 103.856 37.5371C101.675 38.7491 99.1125 39.355 96.1693 39.355Z" fill="white"/>
<path d="M125.185 39.355C121.895 39.355 119.333 38.524 117.498 36.8619C115.662 35.1652 114.745 32.6548 114.745 29.3306V0.399902H122.847V29.2267C122.847 30.404 123.159 31.3216 123.782 31.9795C124.406 32.6028 125.254 32.9144 126.327 32.9144C127.609 32.9144 128.699 32.5682 129.6 31.8756L131.781 37.5891C130.95 38.1777 129.946 38.6279 128.769 38.9395C127.626 39.2165 126.431 39.355 125.185 39.355ZM110.434 17.8518V11.619H129.807V17.8518H110.434Z" fill="white"/>
<path d="M136.33 38.9395V10.9957H144.069V18.8906L142.978 16.6052C143.809 14.6315 145.142 13.1426 146.977 12.1384C148.813 11.0996 151.046 10.5802 153.678 10.5802V18.0596C153.331 18.0249 153.02 18.0076 152.743 18.0076C152.466 17.973 152.171 17.9557 151.86 17.9557C149.644 17.9557 147.843 18.5963 146.458 19.8775C145.107 21.124 144.432 23.0804 144.432 25.7467V38.9395H136.33Z" fill="white"/>
<path d="M171.589 39.355C168.611 39.355 165.962 38.7318 163.642 37.4852C161.357 36.2386 159.539 34.5419 158.189 32.395C156.873 30.2136 156.215 27.7377 156.215 24.9676C156.215 22.1628 156.873 19.687 158.189 17.5402C159.539 15.3587 161.357 13.662 163.642 12.45C165.962 11.2035 168.611 10.5802 171.589 10.5802C174.533 10.5802 177.164 11.2035 179.484 12.45C181.804 13.662 183.622 15.3414 184.938 17.4882C186.254 19.6351 186.912 22.1282 186.912 24.9676C186.912 27.7377 186.254 30.2136 184.938 32.395C183.622 34.5419 181.804 36.2386 179.484 37.4852C177.164 38.7318 174.533 39.355 171.589 39.355ZM171.589 32.7067C172.94 32.7067 174.152 32.3951 175.225 31.7718C176.298 31.1485 177.147 30.2655 177.77 29.1228C178.393 27.9455 178.705 26.5604 178.705 24.9676C178.705 23.3401 178.393 21.9551 177.77 20.8124C177.147 19.6697 176.298 18.7867 175.225 18.1634C174.152 17.5402 172.94 17.2285 171.589 17.2285C170.239 17.2285 169.027 17.5402 167.953 18.1634C166.88 18.7867 166.014 19.6697 165.356 20.8124C164.733 21.9551 164.421 23.3401 164.421 24.9676C164.421 26.5604 164.733 27.9455 165.356 29.1228C166.014 30.2655 166.88 31.1485 167.953 31.7718C169.027 32.3951 170.239 32.7067 171.589 32.7067Z" fill="white"/>
<path d="M196.643 39.5889C195.446 39.5889 194.381 39.3357 193.449 38.8295C192.531 38.3232 191.8 37.6341 191.258 36.7622C190.729 35.8762 190.464 34.8707 190.464 33.7456C190.464 32.6065 190.729 31.601 191.258 30.7291C191.8 29.8431 192.531 29.154 193.449 28.6618C194.381 28.1555 195.446 27.9023 196.643 27.9023C197.825 27.9023 198.883 28.1555 199.815 28.6618C200.748 29.154 201.478 29.836 202.007 30.708C202.536 31.5799 202.8 32.5924 202.8 33.7456C202.8 34.8707 202.536 35.8762 202.007 36.7622C201.478 37.6341 200.748 38.3232 199.815 38.8295C198.883 39.3357 197.825 39.5889 196.643 39.5889ZM196.643 36.8887C197.185 36.8887 197.672 36.7622 198.104 36.509C198.535 36.2559 198.876 35.8973 199.127 35.4332C199.377 34.9551 199.502 34.3925 199.502 33.7456C199.502 33.0846 199.377 32.5221 199.127 32.058C198.876 31.5939 198.535 31.2353 198.104 30.9822C197.672 30.7291 197.185 30.6025 196.643 30.6025C196.1 30.6025 195.613 30.7291 195.182 30.9822C194.75 31.2353 194.402 31.5939 194.138 32.058C193.887 32.5221 193.762 33.0846 193.762 33.7456C193.762 34.3925 193.887 34.9551 194.138 35.4332C194.402 35.8973 194.75 36.2559 195.182 36.509C195.613 36.7622 196.1 36.8887 196.643 36.8887Z" fill="white"/>
</svg>
