<svg width="179" height="35" viewBox="0 0 179 35" fill="none" xmlns="http://www.w3.org/2000/svg">
<path d="M6.81177 15.0749H22.2183V20.8013H6.81177V15.0749ZM7.36037 28.1638H24.7784V34.072H0V2.25865H24.1841V8.16685H7.36037V28.1638Z" fill="#101316"/>
<path d="M30.1683 34.072V0.349854H37.3001V34.072H30.1683Z" fill="#101316"/>
<path d="M56.1253 34.4356C53.3214 34.4356 50.8527 33.8902 48.7192 32.7995C46.6163 31.7087 44.9857 30.2241 43.8276 28.3456C42.6694 26.4368 42.0903 24.2705 42.0903 21.8466C42.0903 19.3924 42.6542 17.2261 43.7818 15.3476C44.94 13.4388 46.5096 11.9542 48.4906 10.8937C50.4717 9.80296 52.7118 9.25759 55.211 9.25759C57.6187 9.25759 59.7826 9.77267 61.7027 10.8028C63.6533 11.8027 65.1924 13.257 66.3201 15.1658C67.4478 17.0443 68.0116 19.3015 68.0116 21.9375C68.0116 22.2102 67.9964 22.5283 67.9659 22.8919C67.9354 23.2252 67.905 23.5433 67.8745 23.8463H31.6355V19.7106H64.1257L61.3827 20.9376C61.3827 19.6651 61.1237 18.5592 60.6055 17.62C60.0874 16.6807 59.3712 15.9535 58.4569 15.4385C57.5425 14.8931 56.4758 14.6204 55.2567 14.6204C54.0376 14.6204 52.9556 14.8931 52.0108 15.4385C51.0965 15.9535 50.3803 16.6959 49.8621 17.6654C49.344 18.6047 49.085 19.7257 49.085 21.0285V22.1193C49.085 23.4524 49.3745 24.634 49.9536 25.6642C50.5631 26.664 51.4013 27.4367 52.468 27.982C53.5652 28.4971 54.8452 28.7546 56.3082 28.7546C57.6187 28.7546 58.7616 28.5577 59.7369 28.1638C60.7427 27.7699 61.657 27.1791 62.4799 26.3914L66.2744 30.4816C65.1467 31.7542 63.7295 32.7389 62.0228 33.4357C60.316 34.1023 58.3502 34.4356 56.1253 34.4356Z" fill="#101316"/>
<path d="M84.646 34.4356C81.9945 34.4356 79.6324 33.9054 77.56 32.8449C75.4875 31.7542 73.8569 30.2544 72.6683 28.3456C71.5101 26.4368 70.9311 24.2705 70.9311 21.8466C70.9311 19.3924 71.5101 17.2261 72.6683 15.3476C73.8569 13.4388 75.4875 11.9542 77.56 10.8937C79.6324 9.80296 81.9945 9.25759 84.646 9.25759C87.2366 9.25759 89.492 9.80296 91.4121 10.8937C93.3322 11.9542 94.7494 13.4842 95.6637 15.4839L90.132 18.438C89.492 17.2867 88.6843 16.4383 87.709 15.8929C86.7642 15.3476 85.728 15.0749 84.6003 15.0749C83.3812 15.0749 82.284 15.3476 81.3087 15.8929C80.3334 16.4383 79.5562 17.2109 78.9772 18.2108C78.4286 19.2106 78.1543 20.4226 78.1543 21.8466C78.1543 23.2706 78.4286 24.4826 78.9772 25.4824C79.5562 26.4823 80.3334 27.2549 81.3087 27.8002C82.284 28.3456 83.3812 28.6183 84.6003 28.6183C85.728 28.6183 86.7642 28.3608 87.709 27.8457C88.6843 27.3003 89.492 26.4368 90.132 25.2552L95.6637 28.2547C94.7494 30.2241 93.3322 31.7542 91.4121 32.8449C89.492 33.9054 87.2366 34.4356 84.646 34.4356Z" fill="#101316"/>
<path d="M110.185 34.4356C107.289 34.4356 105.034 33.7084 103.419 32.2541C101.803 30.7695 100.996 28.5728 100.996 25.6642V0.349854H108.128V25.5733C108.128 26.6034 108.402 27.4064 108.95 27.982C109.499 28.5274 110.246 28.8001 111.191 28.8001C112.318 28.8001 113.278 28.4971 114.071 27.8911L115.991 32.8904C115.259 33.4054 114.375 33.7993 113.339 34.072C112.333 34.3144 111.282 34.4356 110.185 34.4356ZM97.2013 15.6203V10.1665H114.254V15.6203H97.2013Z" fill="#101316"/>
<path d="M119.994 34.072V9.62117H126.806V16.5292L125.846 14.5295C126.577 12.8025 127.751 11.4997 129.366 10.621C130.981 9.71207 132.947 9.25759 135.264 9.25759V15.8021C134.959 15.7718 134.684 15.7566 134.441 15.7566C134.197 15.7263 133.938 15.7112 133.663 15.7112C131.713 15.7112 130.128 16.2717 128.909 17.3927C127.72 18.4835 127.126 20.1953 127.126 22.5283V34.072H119.994Z" fill="#101316"/>
<path d="M151.029 34.4356C148.408 34.4356 146.076 33.8902 144.034 32.7995C142.023 31.7087 140.423 30.2241 139.234 28.3456C138.076 26.4368 137.497 24.2705 137.497 21.8466C137.497 19.3924 138.076 17.2261 139.234 15.3476C140.423 13.4388 142.023 11.9542 144.034 10.8937C146.076 9.80296 148.408 9.25759 151.029 9.25759C153.62 9.25759 155.936 9.80296 157.978 10.8937C160.02 11.9542 161.62 13.4236 162.778 15.3021C163.936 17.1806 164.515 19.3621 164.515 21.8466C164.515 24.2705 163.936 26.4368 162.778 28.3456C161.62 30.2241 160.02 31.7087 157.978 32.7995C155.936 33.8902 153.62 34.4356 151.029 34.4356ZM151.029 28.6183C152.218 28.6183 153.284 28.3456 154.229 27.8002C155.174 27.2549 155.921 26.4823 156.469 25.4824C157.018 24.4523 157.292 23.2403 157.292 21.8466C157.292 20.4226 157.018 19.2106 156.469 18.2108C155.921 17.2109 155.174 16.4383 154.229 15.8929C153.284 15.3476 152.218 15.0749 151.029 15.0749C149.84 15.0749 148.774 15.3476 147.829 15.8929C146.884 16.4383 146.122 17.2109 145.543 18.2108C144.994 19.2106 144.72 20.4226 144.72 21.8466C144.72 23.2403 144.994 24.4523 145.543 25.4824C146.122 26.4823 146.884 27.2549 147.829 27.8002C148.774 28.3456 149.84 28.6183 151.029 28.6183Z" fill="#101316"/>
<path d="M173.08 34.6404C172.027 34.6404 171.09 34.4189 170.269 33.9759C169.461 33.5329 168.818 32.93 168.34 32.167C167.875 31.3918 167.642 30.512 167.642 29.5275C167.642 28.5308 167.875 27.651 168.34 26.888C168.818 26.1128 169.461 25.5098 170.269 25.0792C171.09 24.6362 172.027 24.4147 173.08 24.4147C174.121 24.4147 175.052 24.6362 175.873 25.0792C176.693 25.5098 177.336 26.1067 177.802 26.8696C178.267 27.6325 178.5 28.5185 178.5 29.5275C178.5 30.512 178.267 31.3918 177.802 32.167C177.336 32.93 176.693 33.5329 175.873 33.9759C175.052 34.4189 174.121 34.6404 173.08 34.6404ZM173.08 32.2778C173.558 32.2778 173.986 32.167 174.366 31.9455C174.746 31.724 175.046 31.4102 175.266 31.0042C175.487 30.5858 175.597 30.0936 175.597 29.5275C175.597 28.9492 175.487 28.457 175.266 28.0509C175.046 27.6448 174.746 27.331 174.366 27.1095C173.986 26.888 173.558 26.7773 173.08 26.7773C172.602 26.7773 172.174 26.888 171.794 27.1095C171.414 27.331 171.108 27.6448 170.876 28.0509C170.655 28.457 170.545 28.9492 170.545 29.5275C170.545 30.0936 170.655 30.5858 170.876 31.0042C171.108 31.4102 171.414 31.724 171.794 31.9455C172.174 32.167 172.602 32.2778 173.08 32.2778Z" fill="#1C4E8E"/>
</svg>
